<?xml version="1.0" standalone="no"?>
<!DOCTYPE svg PUBLIC "-//W3C//DTD SVG 20010904//EN"
 "http://www.w3.org/TR/2001/REC-SVG-20010904/DTD/svg10.dtd">
<svg version="1.0" xmlns="http://www.w3.org/2000/svg"
 width="320.000000pt" height="320.000000pt" viewBox="0 0 320.000000 320.000000"
 preserveAspectRatio="xMidYMid meet">
<metadata>
Created by potrace 1.14, written by Peter Selinger 2001-2017
</metadata>
<g transform="translate(0.000000,320.000000) scale(0.100000,-0.100000)"
fill="#000000" stroke="none">
<path d="M765 3062 c-36 -7 -83 -51 -91 -84 -4 -18 -8 -63 -8 -100 -1 -36 -3
-69 -6 -72 -3 -3 -21 -8 -40 -11 -57 -10 -118 -44 -154 -87 -69 -80 -66 -19
-66 -1173 0 -1162 -4 -1094 70 -1178 24 -27 60 -53 92 -67 l53 -23 975 0 c536
0 987 3 1001 6 81 16 160 88 191 172 17 44 18 120 15 1104 -2 1018 -3 1057
-21 1096 -36 75 -116 136 -197 150 -18 3 -35 8 -39 10 -4 2 -7 42 -7 89 -1 71
-4 89 -22 113 -33 42 -76 62 -123 56 -88 -10 -120 -57 -122 -180 l-1 -83 -666
0 -667 0 2 68 c1 37 -2 83 -7 102 -9 33 -58 88 -81 91 -31 4 -63 4 -81 1z"/>
</g>
</svg>
